# xmcd
#
# Track frame offsets: 
#        150
#        14705
#        27865
#        41990
#        55382
#        68905
#        86380
#        100175
#        112957
#        129670
#        142325
#        160150
#        173986
#        188359
#        202813
#        214676
#
# Disc length: 3000 seconds
#
# Revision: 0
# Processed by: cddbd v1.5.2PL0 Copyright (c) Steve Scherf et al.
# Submitted via: ExactAudioCopy v0.99pb4
#
DISCID=e10bb610
DTITLE=John Lee Hooker - Sally Mae
DYEAR=2008
DGENRE=Blues
TTITLE0=Sugar Mama
TTITLE1=Walkin' the Boogie
TTITLE2=Dreamin' Blues
TTITLE3=Ground Hog Blues
TTITLE4=It's my own Fault
TTITLE5=Lonely Boy Boogy (aka New Boogie)
TTITLE6=Apologize
TTITLE7=Huckle up Baby
TTITLE8=My first Wife left Me
TTITLE9=Hobo Blues
TTITLE10=Wednesday Evening Blues
TTITLE11=Alberta
TTITLE12=Sally Mae
TTITLE13=Four Women in My Life
TTITLE14=Strike Blues
TTITLE15=Walkin' this Highway
EXTD=
EXTT0=
EXTT1=
EXTT2=
EXTT3=
EXTT4=
EXTT5=
EXTT6=
EXTT7=
EXTT8=
EXTT9=
EXTT10=
EXTT11=
EXTT12=
EXTT13=
EXTT14=
EXTT15=
PLAYORDER=
